<svg width="40" height="41" viewBox="0 0 40 41" fill="none" xmlns="http://www.w3.org/2000/svg">
<path fill-rule="evenodd" clip-rule="evenodd" d="M0 20.5247C0 9.26057 8.95455 0.128708 20 0.128708C31.0455 0.128708 40 9.26057 40 20.5247C40 31.7889 31.0455 40.9208 20 40.9208C8.95455 40.9208 0 31.7889 0 20.5247ZM18.1818 9.39964C18.1818 8.90787 17.9903 8.43626 17.6493 8.08853C17.3083 7.7408 16.8458 7.54545 16.3636 7.54545C15.8814 7.54545 15.419 7.7408 15.078 8.08853C14.737 8.43626 14.5455 8.90787 14.5455 9.39964V11.2538H12.7273C12.2451 11.2538 11.7826 11.4492 11.4416 11.7969C11.1006 12.1446 10.9091 12.6162 10.9091 13.108C10.9091 13.5998 11.1006 14.0714 11.4416 14.4191C11.7826 14.7668 12.2451 14.9622 12.7273 14.9622H14.5455V26.0873H12.7273C12.2451 26.0873 11.7826 26.2827 11.4416 26.6304C11.1006 26.9781 10.9091 27.4497 10.9091 27.9415C10.9091 28.4333 11.1006 28.9049 11.4416 29.2526C11.7826 29.6003 12.2451 29.7957 12.7273 29.7957H14.5455V31.6499C14.5455 32.1416 14.737 32.6132 15.078 32.961C15.419 33.3087 15.8814 33.504 16.3636 33.504C16.8458 33.504 17.3083 33.3087 17.6493 32.961C17.9903 32.6132 18.1818 32.1416 18.1818 31.6499V29.7957H20V31.6499C20 32.1416 20.1916 32.6132 20.5325 32.961C20.8735 33.3087 21.336 33.504 21.8182 33.504C22.3004 33.504 22.7629 33.3087 23.1038 32.961C23.4448 32.6132 23.6364 32.1416 23.6364 31.6499V29.7957C24.5327 29.7957 25.8382 29.5361 26.9709 28.7054C28.2 27.8024 29.0909 26.3209 29.0909 24.2331C29.0909 22.6552 28.58 21.4222 27.8 20.5247C28.58 19.6273 29.0909 18.3943 29.0909 16.8164C29.0909 14.7286 28.1982 13.2452 26.9709 12.3441C25.9938 11.6436 24.8307 11.2633 23.6364 11.2538V9.39964C23.6364 8.90787 23.4448 8.43626 23.1038 8.08853C22.7629 7.7408 22.3004 7.54545 21.8182 7.54545C21.336 7.54545 20.8735 7.7408 20.5325 8.08853C20.1916 8.43626 20 8.90787 20 9.39964V11.2538H18.1818V9.39964ZM18.1818 18.6706V14.9622H23.6364C23.9509 14.9622 24.4655 15.0734 24.8473 15.3553C25.1364 15.5667 25.4545 15.9375 25.4545 16.8164C25.4545 17.6953 25.1364 18.0661 24.8473 18.2793C24.4883 18.5245 24.0683 18.6602 23.6364 18.6706H18.1818ZM18.1818 22.3789H23.6364C23.9509 22.3789 24.4655 22.4902 24.8473 22.7702C25.1364 22.9834 25.4545 23.3542 25.4545 24.2331C25.4545 25.112 25.1364 25.4828 24.8473 25.6961C24.4883 25.9412 24.0683 26.0769 23.6364 26.0873H18.1818V22.3789Z" fill="#FF7700"/>
</svg>
