<svg width="92" height="92" viewBox="0 0 92 92" fill="none" xmlns="http://www.w3.org/2000/svg">
<circle cx="46" cy="46" r="46" fill="#181818"/>
<path d="M46.069 55V37L62 46L46.069 55Z" fill="white"/>
<path d="M46.069 37L46.8068 35.694C46.3424 35.4316 45.7736 35.4356 45.3129 35.7045C44.8522 35.9733 44.569 36.4666 44.569 37H46.069ZM46.069 55H44.569C44.569 55.5334 44.8522 56.0267 45.3129 56.2955C45.7736 56.5644 46.3424 56.5684 46.8068 56.306L46.069 55ZM62 46L62.7378 47.306C63.2088 47.0399 63.5 46.5409 63.5 46C63.5 45.4591 63.2088 44.9601 62.7378 44.694L62 46ZM29 44.5C28.1716 44.5 27.5 45.1716 27.5 46C27.5 46.8284 28.1716 47.5 29 47.5V44.5ZM40.3793 47.5C41.2077 47.5 41.8793 46.8284 41.8793 46C41.8793 45.1716 41.2077 44.5 40.3793 44.5V47.5ZM44.569 37V55H47.569V37H44.569ZM46.8068 56.306L62.7378 47.306L61.2622 44.694L45.3312 53.694L46.8068 56.306ZM62.7378 44.694L46.8068 35.694L45.3312 38.306L61.2622 47.306L62.7378 44.694ZM29 47.5H34.6897V44.5H29V47.5ZM34.6897 47.5H40.3793V44.5H34.6897V47.5Z" fill="white"/>
</svg>
