<svg width="40" height="40" viewBox="0 0 40 41" fill="none" xmlns="http://www.w3.org/2000/svg">
            <path fill-rule="evenodd" clip-rule="evenodd" d="M0 20.396C0 9.13186 8.95455 0 20 0C31.0455 0 40 9.13186 40 20.396C40 31.6602 31.0455 40.7921 20 40.7921C8.95455 40.7921 0 31.6602 0 20.396ZM21.48 6.33946C21.3118 6.0991 21.0898 5.90318 20.8323 5.768C20.5749 5.63283 20.2895 5.56231 20 5.56231C19.7105 5.56231 19.4251 5.63283 19.1677 5.768C18.9102 5.90318 18.6882 6.0991 18.52 6.33946L9.42909 19.3188C9.20903 19.6331 9.09073 20.0098 9.09073 20.396C9.09073 20.7823 9.20903 21.1589 9.42909 21.4733L18.52 34.4526C18.6882 34.693 18.9102 34.8889 19.1677 35.0241C19.4251 35.1593 19.7105 35.2298 20 35.2298C20.2895 35.2298 20.5749 35.1593 20.8323 35.0241C21.0898 34.8889 21.3118 34.693 21.48 34.4526L30.5709 21.4733C30.791 21.1589 30.9093 20.7823 30.9093 20.396C30.9093 20.0098 30.791 19.6331 30.5709 19.3188L21.48 6.33946V6.33946ZM20 22.1075L15.8055 20.396L20 18.6846L24.1945 20.396L20 22.1075ZM20.6745 25.8251L24.0055 24.4678L20 30.1843L15.9945 24.4678L19.3255 25.8251C19.7585 26.0015 20.2415 26.0015 20.6745 25.8251V25.8251ZM20 10.6059L15.9945 16.3242L19.3255 14.967C19.7585 14.7905 20.2415 14.7905 20.6745 14.967L24.0055 16.3242L20 10.6059Z" fill="#7B61FF"/>
        </svg>