<svg width="180" height="180" viewBox="0 0 180 180" fill="none" xmlns="http://www.w3.org/2000/svg">
<rect width="180" height="180" rx="48" fill="white"/>
<path d="M41.6364 100C41.6364 94.4772 44.4854 90 48 90H51.1818C54.6963 90 57.5454 94.4772 57.5454 100V117H41.6364V100Z" fill="#FF7700"/>
<path d="M41.6364 127V117H53.7273L41.6364 127Z" fill="#FF7700"/>
<path d="M69.6364 69.9545C69.6364 65.5614 73.1977 62 77.5909 62V62C81.9841 62 85.5454 65.5614 85.5454 69.9545V105H69.6364V69.9545Z" fill="#FF7700"/>
<path d="M97.6364 46.9545C97.6364 42.5614 101.198 39 105.591 39V39C109.984 39 113.545 42.5614 113.545 46.9545V122H97.6364V46.9545Z" fill="#FF7700"/>
<path d="M24.6776 137.882C23.2314 139.164 23.0989 141.376 24.3815 142.822C25.6642 144.269 27.8763 144.401 29.3224 143.118L24.6776 137.882ZM153 53.5L117.937 73.5983L152.874 93.9143L153 53.5ZM29.3224 143.118L65.2011 111.296L60.5563 106.059L24.6776 137.882L29.3224 143.118ZM120.671 116.058L140.191 82.4901L134.14 78.9713L114.62 112.539L120.671 116.058ZM85.4834 115.114C92.7112 129.235 112.697 129.771 120.671 116.058L114.62 112.539C109.429 121.466 96.4195 121.117 91.7146 111.925L85.4834 115.114ZM65.2011 111.296C71.5849 105.634 81.5955 107.519 85.4834 115.114L91.7146 111.925C85.7418 100.256 70.3632 97.361 60.5563 106.059L65.2011 111.296Z" fill="black"/>
</svg>
